<svg width="24" height="24" viewBox="0 0 24 24" fill="none" xmlns="http://www.w3.org/2000/svg">
<g clip-path="url(#clip0_60_33151)">
<g clip-path="url(#clip1_60_33151)">
<path d="M15.6039 2.53019V0.983727C15.6039 0.577284 15.2669 0.240234 14.8605 0.240234C14.454 0.240234 14.117 0.577284 14.117 0.983727V2.47071H7.67333V0.983727C7.67333 0.577284 7.33628 0.240234 6.92984 0.240234C6.5234 0.240234 6.18635 0.577284 6.18635 0.983727V2.53019C3.50977 2.77802 2.21114 4.37405 2.01288 6.74331C1.99305 7.0308 2.23097 7.26871 2.50854 7.26871H19.2818C19.5692 7.26871 19.8072 7.02088 19.7774 6.74331C19.5791 4.37405 18.2805 2.77802 15.6039 2.53019Z" fill="#3A643B"/>
<path opacity="0.4" d="M18.8251 8.75781C19.3704 8.75781 19.8165 9.20386 19.8165 9.74918V15.8557C19.8165 18.8297 18.3295 20.8123 14.8599 20.8123H6.92927C3.45964 20.8123 1.97266 18.8297 1.97266 15.8557V9.74918C1.97266 9.20386 2.41875 8.75781 2.96398 8.75781H18.8251Z" fill="#3A643B"/>
<path d="M7.42492 13.8683C7.16717 13.8683 6.90943 13.7592 6.72108 13.5808C6.54264 13.3924 6.43359 13.1347 6.43359 12.8769C6.43359 12.6192 6.54264 12.3615 6.72108 12.1731C6.99865 11.8955 7.43483 11.8063 7.80162 11.9649C7.93049 12.0145 8.03954 12.0839 8.12876 12.1731C8.30719 12.3615 8.41624 12.6192 8.41624 12.8769C8.41624 13.1347 8.30719 13.3924 8.12876 13.5808C7.9404 13.7592 7.68266 13.8683 7.42492 13.8683Z" fill="#3A643B"/>
<path d="M10.8976 13.8683C10.6398 13.8683 10.3821 13.7592 10.1937 13.5808C10.0153 13.3924 9.90625 13.1347 9.90625 12.8769C9.90625 12.6192 10.0153 12.3615 10.1937 12.1731C10.283 12.0839 10.392 12.0145 10.5209 11.9649C10.8877 11.8063 11.3238 11.8955 11.6014 12.1731C11.7799 12.3615 11.8889 12.6192 11.8889 12.8769C11.8889 13.1347 11.7799 13.3924 11.6014 13.5808C11.5518 13.6204 11.5023 13.6601 11.4527 13.6997C11.3932 13.7394 11.3338 13.7691 11.2743 13.789C11.2148 13.8187 11.1553 13.8385 11.0958 13.8484C11.0264 13.8583 10.967 13.8683 10.8976 13.8683Z" fill="#3A643B"/>
<path d="M14.3663 13.8694C14.1086 13.8694 13.8508 13.7603 13.6625 13.5819C13.484 13.3935 13.375 13.1358 13.375 12.878C13.375 12.6203 13.484 12.3626 13.6625 12.1742C13.7616 12.085 13.8607 12.0156 13.9896 11.966C14.1681 11.8867 14.3663 11.8669 14.5646 11.9065C14.6241 11.9165 14.6835 11.9363 14.743 11.966C14.8025 11.9859 14.862 12.0156 14.9215 12.0552C14.971 12.0949 15.0206 12.1345 15.0702 12.1742C15.2486 12.3626 15.3576 12.6203 15.3576 12.878C15.3576 13.1358 15.2486 13.3935 15.0702 13.5819C15.0206 13.6215 14.971 13.6612 14.9215 13.7008C14.862 13.7405 14.8025 13.7702 14.743 13.7901C14.6835 13.8198 14.6241 13.8396 14.5646 13.8495C14.4952 13.8595 14.4258 13.8694 14.3663 13.8694Z" fill="#3A643B"/>
<path d="M7.42492 17.3401C7.29604 17.3401 7.16717 17.3103 7.04821 17.2608C6.91934 17.2112 6.82021 17.1418 6.72108 17.0526C6.54264 16.8642 6.43359 16.6065 6.43359 16.3487C6.43359 16.091 6.54264 15.8333 6.72108 15.6449C6.82021 15.5557 6.91934 15.4863 7.04821 15.4367C7.22665 15.3574 7.42492 15.3376 7.62318 15.3772C7.68266 15.3872 7.74214 15.407 7.80162 15.4367C7.8611 15.4566 7.92058 15.4863 7.98006 15.5259C8.02962 15.5656 8.07919 15.6053 8.12876 15.6449C8.30719 15.8333 8.41624 16.091 8.41624 16.3487C8.41624 16.6065 8.30719 16.8642 8.12876 17.0526C8.07919 17.0922 8.02962 17.1418 7.98006 17.1715C7.92058 17.2112 7.8611 17.2409 7.80162 17.2608C7.74214 17.2905 7.68266 17.3103 7.62318 17.3202C7.55379 17.3302 7.49431 17.3401 7.42492 17.3401Z" fill="#3A643B"/>
<path d="M10.8976 17.3433C10.6398 17.3433 10.3821 17.2343 10.1937 17.0558C10.0153 16.8675 9.90625 16.6097 9.90625 16.352C9.90625 16.0942 10.0153 15.8365 10.1937 15.6481C10.5605 15.2813 11.2346 15.2813 11.6014 15.6481C11.7799 15.8365 11.8889 16.0942 11.8889 16.352C11.8889 16.6097 11.7799 16.8675 11.6014 17.0558C11.4131 17.2343 11.1553 17.3433 10.8976 17.3433Z" fill="#3A643B"/>
<path d="M14.3663 17.3433C14.1086 17.3433 13.8508 17.2343 13.6625 17.0558C13.484 16.8675 13.375 16.6097 13.375 16.352C13.375 16.0942 13.484 15.8365 13.6625 15.6481C14.0293 15.2813 14.7034 15.2813 15.0702 15.6481C15.2486 15.8365 15.3576 16.0942 15.3576 16.352C15.3576 16.6097 15.2486 16.8675 15.0702 17.0558C14.8818 17.2343 14.6241 17.3433 14.3663 17.3433Z" fill="#3A643B"/>
</g>
</g>
<defs>
<clipPath id="clip0_60_33151">
<rect width="23.7917" height="23.7917" fill="white"/>
</clipPath>
<clipPath id="clip1_60_33151">
<rect width="23.7917" height="23.7917" fill="white" transform="translate(-1 -1)"/>
</clipPath>
</defs>
</svg>
