<svg width="26" height="26" viewBox="0 0 26 26" fill="none" xmlns="http://www.w3.org/2000/svg">
<g clip-path="url(#clip0_60_33184)">
<g clip-path="url(#clip1_60_33184)">
<path opacity="0.4" d="M19.3879 14.5612C18.9365 15.0018 18.6786 15.6359 18.7431 16.3129C18.8398 17.4736 19.9037 18.3226 21.0644 18.3226H23.1063V19.6014C23.1063 21.826 21.2901 23.6422 19.0655 23.6422H6.72826C4.5037 23.6422 2.6875 21.826 2.6875 19.6014V12.3689C2.6875 10.1443 4.5037 8.32812 6.72826 8.32812H19.0655C21.2901 8.32812 23.1063 10.1443 23.1063 12.3689V13.9164H20.9354C20.3336 13.9164 19.7855 14.1528 19.3879 14.5612Z" fill="#3A643B"/>
<path d="M15.9597 4.24196V8.3257H6.72827C4.5037 8.3257 2.6875 10.1419 2.6875 12.3665V8.42246C2.6875 7.1436 3.47201 6.00439 4.6649 5.55303L13.1978 2.32901C14.5304 1.83467 15.9597 2.81265 15.9597 4.24196Z" fill="#3A643B"/>
<path d="M24.2465 15.0161V17.2299C24.2465 17.821 23.7736 18.3046 23.1718 18.3261H21.0655C19.9048 18.3261 18.8409 17.4771 18.7442 16.3164C18.6797 15.6394 18.9376 15.0053 19.389 14.5647C19.7866 14.1563 20.3347 13.9199 20.9365 13.9199H23.1718C23.7736 13.9414 24.2465 14.425 24.2465 15.0161Z" fill="#3A643B"/>
<path d="M15.0475 13.7019H7.52475C7.08414 13.7019 6.71875 13.3365 6.71875 12.8958C6.71875 12.4552 7.08414 12.0898 7.52475 12.0898H15.0475C15.4881 12.0898 15.8535 12.4552 15.8535 12.8958C15.8535 13.3365 15.4881 13.7019 15.0475 13.7019Z" fill="#3A643B"/>
</g>
</g>
<defs>
<clipPath id="clip0_60_33184">
<rect width="25.7921" height="25.7921" fill="white"/>
</clipPath>
<clipPath id="clip1_60_33184">
<rect width="25.7921" height="25.7921" fill="white"/>
</clipPath>
</defs>
</svg>
