<svg width="37" height="37" viewBox="0 0 37 37" fill="none" xmlns="http://www.w3.org/2000/svg">
<rect width="37" height="37" rx="12" fill="#2E37A4" fill-opacity="0.05"/>
<path d="M19.0025 10.75L19.2163 10.7515C22.856 10.7995 26.5025 12.0745 26.5025 13.9998V14.0275C26.5235 14.338 26.4485 14.6612 26.2543 14.9522L26.1868 15.046L24.2008 17.296C24.5308 17.4702 24.7843 17.7609 24.9118 18.1116C25.0394 18.4624 25.0319 18.848 24.8908 19.1935L24.8443 19.2955L24.0943 20.7955C23.979 21.0265 23.806 21.2237 23.5921 21.3683C23.3782 21.5128 23.1306 21.5997 22.8733 21.6205L22.7525 21.625H21.2518V25.375C21.2518 26.1655 20.8918 26.3853 20.1125 26.8727C19.3325 27.3603 19.0805 27.625 18.2525 27.625C17.8741 27.6251 17.5096 27.4822 17.2321 27.2249C16.9546 26.9676 16.7847 26.6149 16.7563 26.2375L16.7525 26.125V20.6395L11.8183 15.046C11.5912 14.759 11.4789 14.3979 11.5033 14.0327L11.5025 13.9998C11.5025 12.0363 15.293 10.75 19.0025 10.75ZM22.4405 17.0538C21.3568 17.3387 20.1635 17.5 19.0025 17.5C17.8408 17.5 16.6475 17.338 15.5638 17.0538L18.2525 20.125V26.125L19.7525 25.375V20.125L22.4405 17.0538ZM23.5025 18.625H23.0278L21.7048 20.1243L22.7525 20.125L23.5025 18.625ZM19.0025 12.25C15.6883 12.25 13.0025 13.4478 13.0025 13.9998C13.0025 14.5525 15.6883 16 19.0025 16C22.316 16 25.0025 14.5525 25.0025 13.9998C25.0025 13.4478 22.316 12.25 19.0025 12.25Z" fill="#3A643B"/>
</svg>
