<svg width="35" height="35" viewBox="0 0 35 35" fill="none" xmlns="http://www.w3.org/2000/svg">
<path d="M14.2206 8.41936C17.4349 7.64752 20.7767 8.1944 23.6057 9.96181C25.4054 11.0867 26.8846 12.5967 27.9123 14.4612L26.3052 13.7863C25.9833 13.6583 25.598 13.7863 25.47 14.1393C25.342 14.4612 25.47 14.8465 25.823 14.9745L28.7798 16.2274C28.8768 16.2597 28.9402 16.292 29.0371 16.292C29.2944 16.292 29.5194 16.1317 29.6151 15.9067L30.8679 12.9822C30.9959 12.6603 30.8679 12.275 30.546 12.147C30.2241 12.0189 29.8388 12.147 29.7108 12.5L29.1005 13.9467C27.9757 11.8897 26.3363 10.1871 24.3115 8.93279C21.1943 7.00381 17.5305 6.39354 13.9633 7.26109C13.6103 7.35804 13.4164 7.67871 13.4811 8.03294C13.5146 8.29146 13.8676 8.51631 14.2206 8.41936Z" fill="#3A643B"/>
<path d="M20.8063 29.6339C17.592 30.4057 14.2501 29.8588 11.4212 28.0914C9.62147 26.9666 8.14231 25.4565 7.11458 23.592L8.68932 24.2669C9.01123 24.3949 9.39655 24.2669 9.52455 23.9139C9.65257 23.592 9.52455 23.2067 9.17156 23.0787L6.2147 21.8258C5.89279 21.6978 5.50747 21.8258 5.37947 22.1788L4.12663 25.1357C3.99861 25.4576 4.12663 25.8429 4.47962 25.9709C4.57657 26.0032 4.63995 26.0356 4.7369 26.0356C4.99418 26.0356 5.21913 25.8752 5.31484 25.6503L5.92512 24.1725C7.04995 26.2295 8.68932 27.9321 10.7141 29.1864C12.8991 30.5362 15.3738 31.2434 17.8805 31.2434C18.9407 31.2434 20.0021 31.1154 21.0623 30.8581C21.4153 30.7611 21.6092 30.4405 21.5445 30.0862C21.5135 29.7618 21.1605 29.5369 20.8063 29.6339Z" fill="#3A643B"/>
<path d="M7.73076 20.8585C7.79539 20.8585 7.89109 20.8585 7.98804 20.8262L13.1623 18.3192C13.3873 18.2223 13.5476 17.9663 13.5476 17.709V9.70606C13.5476 9.64143 13.5476 9.57805 13.483 9.54573L13.2568 9.31952L13.2592 9.28845L8.02038 6.84615C7.86005 6.7492 7.6351 6.7492 7.47349 6.84615L2.33167 9.32074C2.29936 9.32074 2.26704 9.35306 2.23473 9.38537C2.20241 9.38537 2.20241 9.41769 2.20241 9.45C2.1701 9.48232 2.13778 9.48232 2.13778 9.51463L2.07315 9.57926L1.97745 9.57802V9.61033H1.91406V17.7736C1.91406 18.0309 2.04208 18.2558 2.29935 18.3839L7.47362 20.7938C7.57057 20.8585 7.66613 20.8585 7.73076 20.8585ZM12.2623 17.3238L8.37317 19.1558V12.7922L12.2623 10.9278V17.3238ZM7.73076 8.16366L11.4271 9.93107L10.3669 10.4133L6.7339 8.6459L7.73076 8.16366ZM5.25616 9.38542L8.92035 11.1528L7.76321 11.6997L4.0669 9.9634L5.25616 9.38542ZM7.08819 19.1883L3.19905 17.3239V10.9603L7.08819 12.8246V19.1883Z" fill="#3A643B"/>
<path d="M7.5 13L3 11V17.5L7 19L7.5 13Z" fill="#AFBDA1"/>
<path d="M27.4006 18.1914C24.2511 18.1914 21.6797 20.763 21.6797 23.9123C21.6797 27.0618 24.2512 29.6332 27.4006 29.6332C30.55 29.6332 33.1215 27.0617 33.1215 23.9123C33.1215 20.7628 30.5512 18.1914 27.4006 18.1914ZM27.7548 26.7079V27.6723H26.983V26.7725C26.405 26.7725 25.8259 26.5798 25.4729 26.3549L25.6978 25.4873C26.0831 25.7123 26.5977 25.9049 27.1446 25.9049C27.7225 25.9049 28.1414 25.6153 28.1414 25.1654C28.1414 24.7478 27.8195 24.4582 27.1135 24.2332C26.1167 23.8802 25.5064 23.4303 25.5064 22.5615C25.5064 21.7586 26.0533 21.1471 27.0165 20.9868V20.0223H27.7884V20.8899C28.3663 20.9222 28.7852 21.0502 29.0735 21.2118L28.8163 22.0793C28.5913 21.9824 28.1737 21.7574 27.5634 21.7574C26.9209 21.7574 26.6636 22.0793 26.6636 22.4C26.6636 22.7853 26.9855 22.9779 27.7884 23.2998C28.8486 23.6851 29.2985 24.1997 29.2985 25.0349C29.3296 25.8403 28.7827 26.5475 27.7548 26.7079Z" fill="#3A643B"/>
<path d="M12.5 11L8.5 12.5V19L12.5 17.5V11Z" fill="#AFBDA1"/>
<path d="M5 9.5L4 10L7.5 11.5L9 11L5 9.5Z" fill="#AFBDA1"/>
<path d="M7.5 8L6 8.5L10.5 10.5L11.5 10L7.5 8Z" fill="#AFBDA1"/>
<path d="M27.5 20H27V21L26 21.5L25.5 22V23L26 23.5L27 24L28 24.5V25.5L27.5 26L25.5 25.5V26.5L27.5 27.5L28 26.5H28.5L29.5 25.5L29 24L26.5 22.5L27 22H29V21H28L27.5 20Z" fill="#AFBDA1"/>
</svg>
