<svg width="37" height="37" viewBox="0 0 37 37" fill="none" xmlns="http://www.w3.org/2000/svg">
<rect width="37" height="37" rx="12" fill="#2E37A4" fill-opacity="0.05"/>
<path fill-rule="evenodd" clip-rule="evenodd" d="M25.8204 15.931C25.5781 16.1897 25.18 16.1897 24.9377 15.931L23.328 14.2586V25.3793C23.328 25.7241 23.0511 26 22.7049 26C22.3588 26 22.0819 25.7241 22.0819 25.3793V14.2586L20.4722 15.931C20.2299 16.1897 19.8318 16.1897 19.5895 15.931C19.3472 15.6724 19.3472 15.2586 19.5895 15L22.203 12.2586C22.203 12.2586 22.203 12.2586 22.2203 12.2414L22.2549 12.2069C22.3588 12.0862 22.5146 12.0172 22.6876 12.0172C22.8607 12.0172 23.0165 12.0862 23.1376 12.2069L25.8031 15C26.0627 15.2586 26.0627 15.6724 25.8204 15.931ZM15.7818 25.7414L15.7299 25.7931C15.626 25.9138 15.4702 25.9828 15.2972 25.9828C15.1241 25.9828 14.9683 25.9138 14.8472 25.7931L12.1817 23C11.9394 22.7414 11.9394 22.3276 12.1817 22.069C12.424 21.8103 12.8221 21.8103 13.0644 22.069L14.6741 23.7414V12.6207C14.6741 12.2759 14.951 12 15.2972 12C15.6433 12 15.9202 12.2759 15.9202 12.6207V23.7414L17.5299 22.069C17.7722 21.8103 18.1703 21.8103 18.4126 22.069C18.6549 22.3276 18.6549 22.7414 18.4126 23L15.7818 25.7414Z" fill="#3A643B"/>
</svg>
