<svg width="934" height="37" viewBox="0 0 934 37" fill="none" xmlns="http://www.w3.org/2000/svg">
<path d="M6.864 23.5L4.4 19.148H3.344V23.5H1.104V12.332H5.296C6.16 12.332 6.896 12.4867 7.504 12.796C8.112 13.0947 8.56533 13.5053 8.864 14.028C9.17333 14.54 9.328 15.116 9.328 15.756C9.328 16.492 9.11467 17.1587 8.688 17.756C8.26133 18.3427 7.62667 18.748 6.784 18.972L9.456 23.5H6.864ZM3.344 17.468H5.216C5.824 17.468 6.27733 17.324 6.576 17.036C6.87467 16.7373 7.024 16.3267 7.024 15.804C7.024 15.292 6.87467 14.8973 6.576 14.62C6.27733 14.332 5.824 14.188 5.216 14.188H3.344V17.468ZM19.594 18.876C19.594 19.196 19.5727 19.484 19.53 19.74H13.05C13.1033 20.38 13.3273 20.8813 13.722 21.244C14.1167 21.6067 14.602 21.788 15.178 21.788C16.01 21.788 16.602 21.4307 16.954 20.716H19.37C19.114 21.5693 18.6233 22.2733 17.898 22.828C17.1727 23.372 16.282 23.644 15.226 23.644C14.3727 23.644 13.6047 23.4573 12.922 23.084C12.25 22.7 11.722 22.1613 11.338 21.468C10.9647 20.7747 10.778 19.9747 10.778 19.068C10.778 18.1507 10.9647 17.3453 11.338 16.652C11.7113 15.9587 12.234 15.4253 12.906 15.052C13.578 14.6787 14.3513 14.492 15.226 14.492C16.0687 14.492 16.8207 14.6733 17.482 15.036C18.154 15.3987 18.6713 15.916 19.034 16.588C19.4073 17.2493 19.594 18.012 19.594 18.876ZM17.274 18.236C17.2633 17.66 17.0553 17.2013 16.65 16.86C16.2447 16.508 15.7487 16.332 15.162 16.332C14.6073 16.332 14.138 16.5027 13.754 16.844C13.3807 17.1747 13.1513 17.6387 13.066 18.236H17.274ZM25.293 16.476H23.741V23.5H21.469V16.476H20.461V14.636H21.469V14.188C21.469 13.1 21.7783 12.3 22.397 11.788C23.0157 11.276 23.949 11.036 25.197 11.068V12.956C24.653 12.9453 24.2743 13.036 24.061 13.228C23.8477 13.42 23.741 13.7667 23.741 14.268V14.636H25.293V16.476ZM34.9846 18.876C34.9846 19.196 34.9633 19.484 34.9206 19.74H28.4406C28.494 20.38 28.718 20.8813 29.1126 21.244C29.5073 21.6067 29.9926 21.788 30.5686 21.788C31.4006 21.788 31.9926 21.4307 32.3446 20.716H34.7606C34.5046 21.5693 34.014 22.2733 33.2886 22.828C32.5633 23.372 31.6726 23.644 30.6166 23.644C29.7633 23.644 28.9953 23.4573 28.3126 23.084C27.6406 22.7 27.1126 22.1613 26.7286 21.468C26.3553 20.7747 26.1686 19.9747 26.1686 19.068C26.1686 18.1507 26.3553 17.3453 26.7286 16.652C27.102 15.9587 27.6246 15.4253 28.2966 15.052C28.9686 14.6787 29.742 14.492 30.6166 14.492C31.4593 14.492 32.2113 14.6733 32.8726 15.036C33.5446 15.3987 34.062 15.916 34.4246 16.588C34.798 17.2493 34.9846 18.012 34.9846 18.876ZM32.6646 18.236C32.654 17.66 32.446 17.2013 32.0406 16.86C31.6353 16.508 31.1393 16.332 30.5526 16.332C29.998 16.332 29.5286 16.5027 29.1446 16.844C28.7713 17.1747 28.542 17.6387 28.4566 18.236H32.6646ZM38.8596 16.012C39.1476 15.5427 39.521 15.1747 39.9796 14.908C40.449 14.6413 40.9823 14.508 41.5796 14.508V16.86H40.9876C40.2836 16.86 39.7503 17.0253 39.3876 17.356C39.0356 17.6867 38.8596 18.2627 38.8596 19.084V23.5H36.6196V14.636H38.8596V16.012ZM45.3284 16.012C45.6164 15.5427 45.9897 15.1747 46.4484 14.908C46.9177 14.6413 47.451 14.508 48.0484 14.508V16.86H47.4564C46.7524 16.86 46.219 17.0253 45.8564 17.356C45.5044 17.6867 45.3284 18.2627 45.3284 19.084V23.5H43.0884V14.636H45.3284V16.012ZM48.9811 19.036C48.9811 18.14 49.1571 17.3453 49.5091 16.652C49.8718 15.9587 50.3571 15.4253 50.9651 15.052C51.5838 14.6787 52.2718 14.492 53.0291 14.492C53.6905 14.492 54.2665 14.6253 54.7571 14.892C55.2585 15.1587 55.6585 15.4947 55.9571 15.9V14.636H58.2131V23.5H55.9571V22.204C55.6691 22.62 55.2691 22.9667 54.7571 23.244C54.2558 23.5107 53.6745 23.644 53.0131 23.644C52.2665 23.644 51.5838 23.452 50.9651 23.068C50.3571 22.684 49.8718 22.1453 49.5091 21.452C49.1571 20.748 48.9811 19.9427 48.9811 19.036ZM55.9571 19.068C55.9571 18.524 55.8505 18.06 55.6371 17.676C55.4238 17.2813 55.1358 16.9827 54.7731 16.78C54.4105 16.5667 54.0211 16.46 53.6051 16.46C53.1891 16.46 52.8051 16.5613 52.4531 16.764C52.1011 16.9667 51.8131 17.2653 51.5891 17.66C51.3758 18.044 51.2691 18.5027 51.2691 19.036C51.2691 19.5693 51.3758 20.0387 51.5891 20.444C51.8131 20.8387 52.1011 21.1427 52.4531 21.356C52.8158 21.5693 53.1998 21.676 53.6051 21.676C54.0211 21.676 54.4105 21.5747 54.7731 21.372C55.1358 21.1587 55.4238 20.86 55.6371 20.476C55.8505 20.0813 55.9571 19.612 55.9571 19.068ZM62.6409 11.66V23.5H60.4009V11.66H62.6409ZM73.8505 23.612C72.8052 23.612 71.8452 23.3667 70.9705 22.876C70.0958 22.3853 69.4025 21.708 68.8905 20.844C68.3785 19.9693 68.1225 18.9827 68.1225 17.884C68.1225 16.796 68.3785 15.82 68.8905 14.956C69.4025 14.0813 70.0958 13.3987 70.9705 12.908C71.8452 12.4173 72.8052 12.172 73.8505 12.172C74.9065 12.172 75.8665 12.4173 76.7305 12.908C77.6052 13.3987 78.2932 14.0813 78.7945 14.956C79.3065 15.82 79.5625 16.796 79.5625 17.884C79.5625 18.9827 79.3065 19.9693 78.7945 20.844C78.2932 21.708 77.6052 22.3853 76.7305 22.876C75.8558 23.3667 74.8958 23.612 73.8505 23.612ZM73.8505 21.612C74.5225 21.612 75.1145 21.4627 75.6265 21.164C76.1385 20.8547 76.5385 20.4173 76.8265 19.852C77.1145 19.2867 77.2585 18.6307 77.2585 17.884C77.2585 17.1373 77.1145 16.4867 76.8265 15.932C76.5385 15.3667 76.1385 14.9347 75.6265 14.636C75.1145 14.3373 74.5225 14.188 73.8505 14.188C73.1785 14.188 72.5812 14.3373 72.0585 14.636C71.5465 14.9347 71.1465 15.3667 70.8585 15.932C70.5705 16.4867 70.4265 17.1373 70.4265 17.884C70.4265 18.6307 70.5705 19.2867 70.8585 19.852C71.1465 20.4173 71.5465 20.8547 72.0585 21.164C72.5812 21.4627 73.1785 21.612 73.8505 21.612ZM84.925 21.436L87.165 14.636H89.549L86.269 23.5H83.549L80.285 14.636H82.685L84.925 21.436ZM99.0471 18.876C99.0471 19.196 99.0258 19.484 98.9831 19.74H92.5031C92.5565 20.38 92.7805 20.8813 93.1751 21.244C93.5698 21.6067 94.0551 21.788 94.6311 21.788C95.4631 21.788 96.0551 21.4307 96.4071 20.716H98.8231C98.5671 21.5693 98.0765 22.2733 97.3511 22.828C96.6258 23.372 95.7351 23.644 94.6791 23.644C93.8258 23.644 93.0578 23.4573 92.3751 23.084C91.7031 22.7 91.1751 22.1613 90.7911 21.468C90.4178 20.7747 90.2311 19.9747 90.2311 19.068C90.2311 18.1507 90.4178 17.3453 90.7911 16.652C91.1645 15.9587 91.6871 15.4253 92.3591 15.052C93.0311 14.6787 93.8045 14.492 94.6791 14.492C95.5218 14.492 96.2738 14.6733 96.9351 15.036C97.6071 15.3987 98.1245 15.916 98.4871 16.588C98.8605 17.2493 99.0471 18.012 99.0471 18.876ZM96.7271 18.236C96.7165 17.66 96.5085 17.2013 96.1031 16.86C95.6978 16.508 95.2018 16.332 94.6151 16.332C94.0605 16.332 93.5911 16.5027 93.2071 16.844C92.8338 17.1747 92.6045 17.6387 92.5191 18.236H96.7271ZM102.922 16.012C103.21 15.5427 103.583 15.1747 104.042 14.908C104.511 14.6413 105.045 14.508 105.642 14.508V16.86H105.05C104.346 16.86 103.813 17.0253 103.45 17.356C103.098 17.6867 102.922 18.2627 102.922 19.084V23.5H100.682V14.636H102.922V16.012ZM110.847 21.436L113.087 14.636H115.471L112.191 23.5H109.471L106.207 14.636H108.607L110.847 21.436ZM117.865 13.58C117.47 13.58 117.14 13.4573 116.873 13.212C116.617 12.956 116.489 12.6413 116.489 12.268C116.489 11.8947 116.617 11.5853 116.873 11.34C117.14 11.084 117.47 10.956 117.865 10.956C118.26 10.956 118.585 11.084 118.841 11.34C119.108 11.5853 119.241 11.8947 119.241 12.268C119.241 12.6413 119.108 12.956 118.841 13.212C118.585 13.4573 118.26 13.58 117.865 13.58ZM118.969 14.636V23.5H116.729V14.636H118.969ZM129.422 18.876C129.422 19.196 129.401 19.484 129.358 19.74H122.878C122.931 20.38 123.155 20.8813 123.55 21.244C123.945 21.6067 124.43 21.788 125.006 21.788C125.838 21.788 126.43 21.4307 126.782 20.716H129.198C128.942 21.5693 128.451 22.2733 127.726 22.828C127.001 23.372 126.11 23.644 125.054 23.644C124.201 23.644 123.433 23.4573 122.75 23.084C122.078 22.7 121.55 22.1613 121.166 21.468C120.793 20.7747 120.606 19.9747 120.606 19.068C120.606 18.1507 120.793 17.3453 121.166 16.652C121.539 15.9587 122.062 15.4253 122.734 15.052C123.406 14.6787 124.179 14.492 125.054 14.492C125.897 14.492 126.649 14.6733 127.31 15.036C127.982 15.3987 128.499 15.916 128.862 16.588C129.235 17.2493 129.422 18.012 129.422 18.876ZM127.102 18.236C127.091 17.66 126.883 17.2013 126.478 16.86C126.073 16.508 125.577 16.332 124.99 16.332C124.435 16.332 123.966 16.5027 123.582 16.844C123.209 17.1747 122.979 17.6387 122.894 18.236H127.102ZM143.345 14.636L140.753 23.5H138.337L136.721 17.308L135.105 23.5H132.673L130.065 14.636H132.337L133.905 21.388L135.601 14.636H137.969L139.633 21.372L141.201 14.636H143.345Z" fill="black"/>
<rect x="158" width="260" height="37" rx="11.1028" fill="#2E37A4" fill-opacity="0.05"/>
<g clip-path="url(#clip0_60_33211)">
<path opacity="0.4" d="M175.744 24.6849C179.581 24.6849 182.691 21.5746 182.691 17.738C182.691 13.9013 179.581 10.791 175.744 10.791C171.907 10.791 168.797 13.9013 168.797 17.738C168.797 21.5746 171.907 24.6849 175.744 24.6849Z" fill="#28643B"/>
<path d="M184.211 23.8634C183.956 23.393 183.417 23.1309 182.692 23.1309C182.144 23.1309 181.674 23.3545 181.397 23.7399C181.119 24.1255 181.057 24.642 181.227 25.1587C181.558 26.161 182.137 26.3846 182.453 26.4231C182.499 26.4309 182.545 26.4309 182.599 26.4309C182.939 26.4309 183.463 26.2843 183.972 25.521C184.38 24.9274 184.457 24.3337 184.211 23.8634Z" fill="#28643B" fill-opacity="0.5"/>
</g>
<path d="M196.49 24.4242C195.837 24.4242 195.249 24.3122 194.726 24.0882C194.204 23.8548 193.793 23.5282 193.494 23.1082C193.196 22.6882 193.046 22.1982 193.046 21.6382H194.754C194.792 22.0582 194.955 22.4035 195.244 22.6742C195.543 22.9449 195.958 23.0802 196.49 23.0802C197.041 23.0802 197.47 22.9495 197.778 22.6882C198.086 22.4175 198.24 22.0722 198.24 21.6522C198.24 21.3255 198.142 21.0595 197.946 20.8542C197.76 20.6489 197.522 20.4902 197.232 20.3782C196.952 20.2662 196.56 20.1449 196.056 20.0142C195.422 19.8462 194.904 19.6782 194.502 19.5102C194.11 19.3329 193.774 19.0622 193.494 18.6982C193.214 18.3342 193.074 17.8489 193.074 17.2423C193.074 16.6823 193.214 16.1923 193.494 15.7723C193.774 15.3523 194.166 15.0303 194.67 14.8063C195.174 14.5823 195.758 14.4703 196.42 14.4703C197.363 14.4703 198.133 14.7083 198.73 15.1843C199.337 15.6509 199.673 16.2949 199.738 17.1163H197.974C197.946 16.7616 197.778 16.4583 197.47 16.2063C197.162 15.9543 196.756 15.8283 196.252 15.8283C195.795 15.8283 195.422 15.9449 195.132 16.1783C194.843 16.4116 194.698 16.7476 194.698 17.1863C194.698 17.4849 194.787 17.7323 194.964 17.9283C195.151 18.1149 195.384 18.2642 195.664 18.3762C195.944 18.4882 196.327 18.6096 196.812 18.7402C197.456 18.9176 197.979 19.0949 198.38 19.2722C198.791 19.4496 199.136 19.7249 199.416 20.0982C199.706 20.4622 199.85 20.9522 199.85 21.5682C199.85 22.0629 199.715 22.5295 199.444 22.9682C199.183 23.4069 198.796 23.7615 198.282 24.0322C197.778 24.2935 197.181 24.4242 196.49 24.4242ZM208.803 20.2802C208.803 20.5696 208.785 20.8309 208.747 21.0642H202.853C202.9 21.6802 203.129 22.1749 203.539 22.5482C203.95 22.9215 204.454 23.1082 205.051 23.1082C205.91 23.1082 206.517 22.7489 206.871 22.0302H208.593C208.36 22.7395 207.935 23.3229 207.319 23.7802C206.713 24.2282 205.957 24.4522 205.051 24.4522C204.314 24.4522 203.651 24.2888 203.063 23.9622C202.485 23.6262 202.027 23.1595 201.691 22.5622C201.365 21.9555 201.201 21.2555 201.201 20.4622C201.201 19.6689 201.36 18.9736 201.677 18.3762C202.004 17.7696 202.457 17.3029 203.035 16.9763C203.623 16.6496 204.295 16.4863 205.051 16.4863C205.779 16.4863 206.428 16.6449 206.997 16.9623C207.567 17.2796 208.01 17.7276 208.327 18.3062C208.645 18.8756 208.803 19.5336 208.803 20.2802ZM207.137 19.7762C207.128 19.1882 206.918 18.7169 206.507 18.3622C206.097 18.0076 205.588 17.8303 204.981 17.8303C204.431 17.8303 203.959 18.0076 203.567 18.3622C203.175 18.7076 202.942 19.1789 202.867 19.7762H207.137ZM209.842 20.4342C209.842 19.6596 210.001 18.9736 210.318 18.3762C210.645 17.7789 211.083 17.3169 211.634 16.9903C212.194 16.6543 212.81 16.4863 213.482 16.4863C214.089 16.4863 214.616 16.6076 215.064 16.8503C215.521 17.0836 215.885 17.3776 216.156 17.7323V16.6123H217.766V24.3262H216.156V23.1782C215.885 23.5422 215.517 23.8455 215.05 24.0882C214.583 24.3308 214.051 24.4522 213.454 24.4522C212.791 24.4522 212.185 24.2842 211.634 23.9482C211.083 23.6028 210.645 23.1269 210.318 22.5202C210.001 21.9042 209.842 21.2089 209.842 20.4342ZM216.156 20.4622C216.156 19.9302 216.044 19.4682 215.82 19.0762C215.605 18.6842 215.321 18.3856 214.966 18.1803C214.611 17.9749 214.229 17.8723 213.818 17.8723C213.407 17.8723 213.025 17.9749 212.67 18.1803C212.315 18.3762 212.026 18.6702 211.802 19.0622C211.587 19.4449 211.48 19.9022 211.48 20.4342C211.48 20.9662 211.587 21.4329 211.802 21.8342C212.026 22.2355 212.315 22.5435 212.67 22.7582C213.034 22.9635 213.417 23.0662 213.818 23.0662C214.229 23.0662 214.611 22.9635 214.966 22.7582C215.321 22.5529 215.605 22.2542 215.82 21.8622C216.044 21.4609 216.156 20.9942 216.156 20.4622ZM221.458 17.7323C221.691 17.3403 221.999 17.0369 222.382 16.8223C222.774 16.5983 223.236 16.4863 223.768 16.4863V18.1383H223.362C222.737 18.1383 222.261 18.2969 221.934 18.6142C221.617 18.9316 221.458 19.4822 221.458 20.2662V24.3262H219.862V16.6123H221.458V17.7323ZM224.703 20.4622C224.703 19.6689 224.862 18.9736 225.179 18.3762C225.506 17.7696 225.954 17.3029 226.523 16.9763C227.092 16.6496 227.746 16.4863 228.483 16.4863C229.416 16.4863 230.186 16.7103 230.793 17.1583C231.409 17.5969 231.824 18.2269 232.039 19.0482H230.317C230.177 18.6656 229.953 18.3669 229.645 18.1523C229.337 17.9376 228.95 17.8303 228.483 17.8303C227.83 17.8303 227.307 18.0636 226.915 18.5302C226.532 18.9876 226.341 19.6316 226.341 20.4622C226.341 21.2929 226.532 21.9415 226.915 22.4082C227.307 22.8749 227.83 23.1082 228.483 23.1082C229.407 23.1082 230.018 22.7022 230.317 21.8902H232.039C231.815 22.6742 231.395 23.2995 230.779 23.7662C230.163 24.2235 229.398 24.4522 228.483 24.4522C227.746 24.4522 227.092 24.2888 226.523 23.9622C225.954 23.6262 225.506 23.1595 225.179 22.5622C224.862 21.9555 224.703 21.2555 224.703 20.4622ZM237.619 16.4863C238.207 16.4863 238.73 16.6123 239.187 16.8643C239.654 17.1163 240.018 17.4896 240.279 17.9843C240.55 18.4789 240.685 19.0762 240.685 19.7762V24.3262H239.103V20.0142C239.103 19.3236 238.931 18.7962 238.585 18.4322C238.24 18.0589 237.769 17.8723 237.172 17.8723C236.574 17.8723 236.098 18.0589 235.744 18.4322C235.398 18.7962 235.226 19.3236 235.226 20.0142V24.3262H233.63V13.9663H235.226V17.5083C235.496 17.1816 235.837 16.9296 236.248 16.7523C236.668 16.5749 237.125 16.4863 237.619 16.4863ZM250.348 16.4863C250.936 16.4863 251.459 16.6123 251.916 16.8643C252.382 17.1163 252.746 17.4896 253.008 17.9843C253.278 18.4789 253.414 19.0762 253.414 19.7762V24.3262H251.832V20.0142C251.832 19.3236 251.659 18.7962 251.314 18.4322C250.969 18.0589 250.497 17.8723 249.9 17.8723C249.303 17.8723 248.827 18.0589 248.472 18.4322C248.127 18.7962 247.954 19.3236 247.954 20.0142V24.3262H246.358V13.9663H247.954V17.5083C248.225 17.1816 248.565 16.9296 248.976 16.7523C249.396 16.5749 249.853 16.4863 250.348 16.4863ZM262.519 20.2802C262.519 20.5696 262.501 20.8309 262.463 21.0642H256.57C256.616 21.6802 256.845 22.1749 257.256 22.5482C257.666 22.9215 258.17 23.1082 258.768 23.1082C259.626 23.1082 260.233 22.7489 260.588 22.0302H262.309C262.076 22.7395 261.652 23.3229 261.036 23.7802C260.429 24.2282 259.673 24.4522 258.768 24.4522C258.03 24.4522 257.368 24.2888 256.78 23.9622C256.201 23.6262 255.744 23.1595 255.408 22.5622C255.081 21.9555 254.918 21.2555 254.918 20.4622C254.918 19.6689 255.076 18.9736 255.394 18.3762C255.72 17.7696 256.173 17.3029 256.752 16.9763C257.34 16.6496 258.012 16.4863 258.768 16.4863C259.496 16.4863 260.144 16.6449 260.714 16.9623C261.283 17.2796 261.726 17.7276 262.043 18.3062C262.361 18.8756 262.519 19.5336 262.519 20.2802ZM260.854 19.7762C260.844 19.1882 260.634 18.7169 260.224 18.3622C259.813 18.0076 259.304 17.8303 258.698 17.8303C258.147 17.8303 257.676 18.0076 257.284 18.3622C256.892 18.7076 256.658 19.1789 256.584 19.7762H260.854ZM265.686 17.7323C265.919 17.3403 266.227 17.0369 266.61 16.8223C267.002 16.5983 267.464 16.4863 267.996 16.4863V18.1383H267.59C266.965 18.1383 266.489 18.2969 266.162 18.6142C265.845 18.9316 265.686 19.4822 265.686 20.2662V24.3262H264.09V16.6123H265.686V17.7323ZM276.533 20.2802C276.533 20.5696 276.514 20.8309 276.477 21.0642H270.583C270.63 21.6802 270.858 22.1749 271.269 22.5482C271.68 22.9215 272.184 23.1082 272.781 23.1082C273.64 23.1082 274.246 22.7489 274.601 22.0302H276.323C276.09 22.7395 275.665 23.3229 275.049 23.7802C274.442 24.2282 273.686 24.4522 272.781 24.4522C272.044 24.4522 271.381 24.2888 270.793 23.9622C270.214 23.6262 269.757 23.1595 269.421 22.5622C269.094 21.9555 268.931 21.2555 268.931 20.4622C268.931 19.6689 269.09 18.9736 269.407 18.3762C269.734 17.7696 270.186 17.3029 270.765 16.9763C271.353 16.6496 272.025 16.4863 272.781 16.4863C273.509 16.4863 274.158 16.6449 274.727 16.9623C275.296 17.2796 275.74 17.7276 276.057 18.3062C276.374 18.8756 276.533 19.5336 276.533 20.2802ZM274.867 19.7762C274.858 19.1882 274.648 18.7169 274.237 18.3622C273.826 18.0076 273.318 17.8303 272.711 17.8303C272.16 17.8303 271.689 18.0076 271.297 18.3622C270.905 18.7076 270.672 19.1789 270.597 19.7762H274.867Z" fill="#28643B" fill-opacity="0.5"/>
<rect x="438" width="37" height="37" rx="12" fill="#2E37A4" fill-opacity="0.05"/>
<g clip-path="url(#clip1_60_33211)">
<g clip-path="url(#clip2_60_33211)">
<g clip-path="url(#clip3_60_33211)">
<path d="M463.657 18.1875C463.191 18.1875 462.825 18.5539 462.825 19.0202C462.814 20.5746 462.214 22.0291 461.126 23.1172C460.027 24.2164 458.561 24.827 457.007 24.827C455.452 24.827 453.987 24.2164 452.888 23.1172C452.854 23.0839 452.832 23.0506 452.799 23.0173H453.72C454.176 23.0173 454.553 22.6398 454.553 22.1846C454.553 21.7293 454.176 21.3518 453.72 21.3518H450.778C450.323 21.3518 449.945 21.7293 449.945 22.1846V25.1268C449.945 25.582 450.323 25.9595 450.778 25.9595C451.233 25.9595 451.611 25.582 451.611 25.1268V24.1831C451.644 24.2164 451.677 24.2608 451.711 24.3052C453.121 25.7153 455.008 26.5036 457.007 26.5036C459.005 26.5036 460.893 25.7264 462.303 24.3052C463.702 22.9062 464.479 21.0299 464.49 19.0313C464.49 18.565 464.113 18.1986 463.657 18.1875Z" fill="#28643B"/>
<path d="M450.333 19.7162C450.788 19.7162 451.155 19.3498 451.166 18.8945C451.188 17.3734 451.799 15.9412 452.864 14.8642C453.964 13.765 455.429 13.1543 456.984 13.1543C458.538 13.1543 460.004 13.765 461.103 14.8642C461.136 14.8975 461.158 14.9308 461.192 14.9641H460.27C459.815 14.9641 459.437 15.3416 459.437 15.7968C459.437 16.2521 459.815 16.6295 460.27 16.6295H463.212C463.668 16.6295 464.045 16.2521 464.045 15.7968V12.8657C464.045 12.4104 463.668 12.0329 463.212 12.0329C462.757 12.0329 462.38 12.4104 462.38 12.8657V13.8205C462.346 13.7872 462.313 13.7428 462.28 13.6984C460.87 12.2883 458.982 11.5 456.984 11.5C454.985 11.5 453.098 12.2772 451.688 13.6984C450.3 15.0751 449.522 16.9182 449.5 18.8723C449.489 19.3276 449.856 19.7051 450.322 19.7162C450.333 19.7162 450.333 19.7162 450.333 19.7162Z" fill="#28643B"/>
</g>
</g>
</g>
<rect x="847" width="37" height="37" rx="12" fill="#2E37A4" fill-opacity="0.05"/>
<path fill-rule="evenodd" clip-rule="evenodd" d="M872.82 15.931C872.578 16.1897 872.18 16.1897 871.938 15.931L870.328 14.2586V25.3793C870.328 25.7241 870.051 26 869.705 26C869.359 26 869.082 25.7241 869.082 25.3793V14.2586L867.472 15.931C867.23 16.1897 866.832 16.1897 866.59 15.931C866.347 15.6724 866.347 15.2586 866.59 15L869.203 12.2586C869.203 12.2586 869.203 12.2586 869.22 12.2414L869.255 12.2069C869.359 12.0862 869.515 12.0172 869.688 12.0172C869.861 12.0172 870.016 12.0862 870.138 12.2069L872.803 15C873.063 15.2586 873.063 15.6724 872.82 15.931ZM862.782 25.7414L862.73 25.7931C862.626 25.9138 862.47 25.9828 862.297 25.9828C862.124 25.9828 861.968 25.9138 861.847 25.7931L859.182 23C858.939 22.7414 858.939 22.3276 859.182 22.069C859.424 21.8103 859.822 21.8103 860.064 22.069L861.674 23.7414V12.6207C861.674 12.2759 861.951 12 862.297 12C862.643 12 862.92 12.2759 862.92 12.6207V23.7414L864.53 22.069C864.772 21.8103 865.17 21.8103 865.413 22.069C865.655 22.3276 865.655 22.7414 865.413 23L862.782 25.7414Z" fill="#3A643B"/>
<rect x="897" width="37" height="37" rx="12" fill="#2E37A4" fill-opacity="0.05"/>
<path d="M916.003 10.75L916.216 10.7515C919.856 10.7995 923.503 12.0745 923.503 13.9998V14.0275C923.524 14.338 923.449 14.6612 923.254 14.9522L923.187 15.046L921.201 17.296C921.531 17.4702 921.784 17.7609 921.912 18.1116C922.039 18.4624 922.032 18.848 921.891 19.1935L921.844 19.2955L921.094 20.7955C920.979 21.0265 920.806 21.2237 920.592 21.3683C920.378 21.5128 920.131 21.5997 919.873 21.6205L919.753 21.625H918.252V25.375C918.252 26.1655 917.892 26.3853 917.113 26.8727C916.333 27.3603 916.081 27.625 915.253 27.625C914.874 27.6251 914.51 27.4822 914.232 27.2249C913.955 26.9676 913.785 26.6149 913.756 26.2375L913.753 26.125V20.6395L908.818 15.046C908.591 14.759 908.479 14.3979 908.503 14.0327L908.503 13.9998C908.503 12.0363 912.293 10.75 916.003 10.75ZM919.441 17.0538C918.357 17.3387 917.164 17.5 916.003 17.5C914.841 17.5 913.648 17.338 912.564 17.0538L915.253 20.125V26.125L916.753 25.375V20.125L919.441 17.0538ZM920.503 18.625H920.028L918.705 20.1243L919.753 20.125L920.503 18.625ZM916.003 12.25C912.688 12.25 910.003 13.4478 910.003 13.9998C910.003 14.5525 912.688 16 916.003 16C919.316 16 922.003 14.5525 922.003 13.9998C922.003 13.4478 919.316 12.25 916.003 12.25Z" fill="#3A643B"/>
<defs>
<clipPath id="clip0_60_33211">
<rect width="18.5046" height="18.5046" fill="white" transform="translate(167.254 9.25195)"/>
</clipPath>
<clipPath id="clip1_60_33211">
<rect width="15" height="15" fill="white" transform="translate(449.5 11.5)"/>
</clipPath>
<clipPath id="clip2_60_33211">
<rect width="15" height="15" fill="white" transform="translate(449.5 11.5)"/>
</clipPath>
<clipPath id="clip3_60_33211">
<rect width="15" height="15" fill="white" transform="translate(449.5 11.5)"/>
</clipPath>
</defs>
</svg>
