<svg width="1008" height="72" viewBox="0 0 1008 72" fill="none" xmlns="http://www.w3.org/2000/svg">
<rect width="1008" height="72" rx="16" fill="white"/>
<path d="M109.643 26.49V28.164H106.313V39H104.261V28.164H100.913V26.49H109.643ZM116.023 39.162C115.087 39.162 114.241 38.952 113.485 38.532C112.729 38.1 112.135 37.5 111.703 36.732C111.271 35.952 111.055 35.052 111.055 34.032C111.055 33.024 111.277 32.13 111.721 31.35C112.165 30.57 112.771 29.97 113.539 29.55C114.307 29.13 115.165 28.92 116.113 28.92C117.061 28.92 117.919 29.13 118.687 29.55C119.455 29.97 120.061 30.57 120.505 31.35C120.949 32.13 121.171 33.024 121.171 34.032C121.171 35.04 120.943 35.934 120.487 36.714C120.031 37.494 119.407 38.1 118.615 38.532C117.835 38.952 116.971 39.162 116.023 39.162ZM116.023 37.38C116.551 37.38 117.043 37.254 117.499 37.002C117.967 36.75 118.345 36.372 118.633 35.868C118.921 35.364 119.065 34.752 119.065 34.032C119.065 33.312 118.927 32.706 118.651 32.214C118.375 31.71 118.009 31.332 117.553 31.08C117.097 30.828 116.605 30.702 116.077 30.702C115.549 30.702 115.057 30.828 114.601 31.08C114.157 31.332 113.803 31.71 113.539 32.214C113.275 32.706 113.143 33.312 113.143 34.032C113.143 35.1 113.413 35.928 113.953 36.516C114.505 37.092 115.195 37.38 116.023 37.38ZM122.516 33.996C122.516 33 122.72 32.118 123.128 31.35C123.548 30.582 124.112 29.988 124.82 29.568C125.54 29.136 126.338 28.92 127.214 28.92C127.862 28.92 128.498 29.064 129.122 29.352C129.758 29.628 130.262 30 130.634 30.468V25.68H132.704V39H130.634V37.506C130.298 37.986 129.83 38.382 129.23 38.694C128.642 39.006 127.964 39.162 127.196 39.162C126.332 39.162 125.54 38.946 124.82 38.514C124.112 38.07 123.548 37.458 123.128 36.678C122.72 35.886 122.516 34.992 122.516 33.996ZM130.634 34.032C130.634 33.348 130.49 32.754 130.202 32.25C129.926 31.746 129.56 31.362 129.104 31.098C128.648 30.834 128.156 30.702 127.628 30.702C127.1 30.702 126.608 30.834 126.152 31.098C125.696 31.35 125.324 31.728 125.036 32.232C124.76 32.724 124.622 33.312 124.622 33.996C124.622 34.68 124.76 35.28 125.036 35.796C125.324 36.312 125.696 36.708 126.152 36.984C126.62 37.248 127.112 37.38 127.628 37.38C128.156 37.38 128.648 37.248 129.104 36.984C129.56 36.72 129.926 36.336 130.202 35.832C130.49 35.316 130.634 34.716 130.634 34.032ZM134.715 33.996C134.715 33 134.919 32.118 135.327 31.35C135.747 30.582 136.311 29.988 137.019 29.568C137.739 29.136 138.531 28.92 139.395 28.92C140.175 28.92 140.853 29.076 141.429 29.388C142.017 29.688 142.485 30.066 142.833 30.522V29.082H144.903V39H142.833V37.524C142.485 37.992 142.011 38.382 141.411 38.694C140.811 39.006 140.127 39.162 139.359 39.162C138.507 39.162 137.727 38.946 137.019 38.514C136.311 38.07 135.747 37.458 135.327 36.678C134.919 35.886 134.715 34.992 134.715 33.996ZM142.833 34.032C142.833 33.348 142.689 32.754 142.401 32.25C142.125 31.746 141.759 31.362 141.303 31.098C140.847 30.834 140.355 30.702 139.827 30.702C139.299 30.702 138.807 30.834 138.351 31.098C137.895 31.35 137.523 31.728 137.235 32.232C136.959 32.724 136.821 33.312 136.821 33.996C136.821 34.68 136.959 35.28 137.235 35.796C137.523 36.312 137.895 36.708 138.351 36.984C138.819 37.248 139.311 37.38 139.827 37.38C140.355 37.38 140.847 37.248 141.303 36.984C141.759 36.72 142.125 36.336 142.401 35.832C142.689 35.316 142.833 34.716 142.833 34.032ZM156.526 29.082L150.442 43.662H148.318L150.334 38.838L146.428 29.082H148.714L151.504 36.642L154.402 29.082H156.526ZM166.872 39.126C166.032 39.126 165.276 38.982 164.604 38.694C163.932 38.394 163.404 37.974 163.02 37.434C162.636 36.894 162.444 36.264 162.444 35.544H164.64C164.688 36.084 164.898 36.528 165.27 36.876C165.654 37.224 166.188 37.398 166.872 37.398C167.58 37.398 168.132 37.23 168.528 36.894C168.924 36.546 169.122 36.102 169.122 35.562C169.122 35.142 168.996 34.8 168.744 34.536C168.504 34.272 168.198 34.068 167.826 33.924C167.466 33.78 166.962 33.624 166.314 33.456C165.498 33.24 164.832 33.024 164.316 32.808C163.812 32.58 163.38 32.232 163.02 31.764C162.66 31.296 162.48 30.672 162.48 29.892C162.48 29.172 162.66 28.542 163.02 28.002C163.38 27.462 163.884 27.048 164.532 26.76C165.18 26.472 165.93 26.328 166.782 26.328C167.994 26.328 168.984 26.634 169.752 27.246C170.532 27.846 170.964 28.674 171.048 29.73H168.78C168.744 29.274 168.528 28.884 168.132 28.56C167.736 28.236 167.214 28.074 166.566 28.074C165.978 28.074 165.498 28.224 165.126 28.524C164.754 28.824 164.568 29.256 164.568 29.82C164.568 30.204 164.682 30.522 164.91 30.774C165.15 31.014 165.45 31.206 165.81 31.35C166.17 31.494 166.662 31.65 167.286 31.818C168.114 32.046 168.786 32.274 169.302 32.502C169.83 32.73 170.274 33.084 170.634 33.564C171.006 34.032 171.192 34.662 171.192 35.454C171.192 36.09 171.018 36.69 170.67 37.254C170.334 37.818 169.836 38.274 169.176 38.622C168.528 38.958 167.76 39.126 166.872 39.126ZM177.916 39.162C176.98 39.162 176.134 38.952 175.378 38.532C174.622 38.1 174.028 37.5 173.596 36.732C173.164 35.952 172.948 35.052 172.948 34.032C172.948 33.024 173.17 32.13 173.614 31.35C174.058 30.57 174.664 29.97 175.432 29.55C176.2 29.13 177.058 28.92 178.006 28.92C178.954 28.92 179.812 29.13 180.58 29.55C181.348 29.97 181.954 30.57 182.398 31.35C182.842 32.13 183.064 33.024 183.064 34.032C183.064 35.04 182.836 35.934 182.38 36.714C181.924 37.494 181.3 38.1 180.508 38.532C179.728 38.952 178.864 39.162 177.916 39.162ZM177.916 37.38C178.444 37.38 178.936 37.254 179.392 37.002C179.86 36.75 180.238 36.372 180.526 35.868C180.814 35.364 180.958 34.752 180.958 34.032C180.958 33.312 180.82 32.706 180.544 32.214C180.268 31.71 179.902 31.332 179.446 31.08C178.99 30.828 178.498 30.702 177.97 30.702C177.442 30.702 176.95 30.828 176.494 31.08C176.05 31.332 175.696 31.71 175.432 32.214C175.168 32.706 175.036 33.312 175.036 34.032C175.036 35.1 175.306 35.928 175.846 36.516C176.398 37.092 177.088 37.38 177.916 37.38ZM197.13 26.49V28.164H191.82V31.854H195.96V33.528H191.82V39H189.768V26.49H197.13ZM198.348 33.996C198.348 33 198.552 32.118 198.96 31.35C199.38 30.582 199.944 29.988 200.652 29.568C201.372 29.136 202.164 28.92 203.028 28.92C203.808 28.92 204.486 29.076 205.062 29.388C205.65 29.688 206.118 30.066 206.466 30.522V29.082H208.536V39H206.466V37.524C206.118 37.992 205.644 38.382 205.044 38.694C204.444 39.006 203.76 39.162 202.992 39.162C202.14 39.162 201.36 38.946 200.652 38.514C199.944 38.07 199.38 37.458 198.96 36.678C198.552 35.886 198.348 34.992 198.348 33.996ZM206.466 34.032C206.466 33.348 206.322 32.754 206.034 32.25C205.758 31.746 205.392 31.362 204.936 31.098C204.48 30.834 203.988 30.702 203.46 30.702C202.932 30.702 202.44 30.834 201.984 31.098C201.528 31.35 201.156 31.728 200.868 32.232C200.592 32.724 200.454 33.312 200.454 33.996C200.454 34.68 200.592 35.28 200.868 35.796C201.156 36.312 201.528 36.708 201.984 36.984C202.452 37.248 202.944 37.38 203.46 37.38C203.988 37.38 204.48 37.248 204.936 36.984C205.392 36.72 205.758 36.336 206.034 35.832C206.322 35.316 206.466 34.716 206.466 34.032ZM213.283 30.522C213.583 30.018 213.979 29.628 214.471 29.352C214.975 29.064 215.569 28.92 216.253 28.92V31.044H215.731C214.927 31.044 214.315 31.248 213.895 31.656C213.487 32.064 213.283 32.772 213.283 33.78V39H211.231V29.082H213.283V30.522Z" fill="#333448" fill-opacity="0.5"/>
<path d="M365.024 26.49L361.316 39H358.994L356.366 29.532L353.576 39L351.272 39.018L347.726 26.49H349.904L352.496 36.678L355.304 26.49H357.608L360.218 36.624L362.828 26.49H365.024ZM375.806 33.798C375.806 34.17 375.782 34.506 375.734 34.806H368.156C368.216 35.598 368.51 36.234 369.038 36.714C369.566 37.194 370.214 37.434 370.982 37.434C372.086 37.434 372.866 36.972 373.322 36.048H375.536C375.236 36.96 374.69 37.71 373.898 38.298C373.118 38.874 372.146 39.162 370.982 39.162C370.034 39.162 369.182 38.952 368.426 38.532C367.682 38.1 367.094 37.5 366.662 36.732C366.242 35.952 366.032 35.052 366.032 34.032C366.032 33.012 366.236 32.118 366.644 31.35C367.064 30.57 367.646 29.97 368.39 29.55C369.146 29.13 370.01 28.92 370.982 28.92C371.918 28.92 372.752 29.124 373.484 29.532C374.216 29.94 374.786 30.516 375.194 31.26C375.602 31.992 375.806 32.838 375.806 33.798ZM373.664 33.15C373.652 32.394 373.382 31.788 372.854 31.332C372.326 30.876 371.672 30.648 370.892 30.648C370.184 30.648 369.578 30.876 369.074 31.332C368.57 31.776 368.27 32.382 368.174 33.15H373.664ZM386.916 33.798C386.916 34.17 386.892 34.506 386.844 34.806H379.266C379.326 35.598 379.62 36.234 380.148 36.714C380.676 37.194 381.324 37.434 382.092 37.434C383.196 37.434 383.976 36.972 384.432 36.048H386.646C386.346 36.96 385.8 37.71 385.008 38.298C384.228 38.874 383.256 39.162 382.092 39.162C381.144 39.162 380.292 38.952 379.536 38.532C378.792 38.1 378.204 37.5 377.772 36.732C377.352 35.952 377.142 35.052 377.142 34.032C377.142 33.012 377.346 32.118 377.754 31.35C378.174 30.57 378.756 29.97 379.5 29.55C380.256 29.13 381.12 28.92 382.092 28.92C383.028 28.92 383.862 29.124 384.594 29.532C385.326 29.94 385.896 30.516 386.304 31.26C386.712 31.992 386.916 32.838 386.916 33.798ZM384.774 33.15C384.762 32.394 384.492 31.788 383.964 31.332C383.436 30.876 382.782 30.648 382.002 30.648C381.294 30.648 380.688 30.876 380.184 31.332C379.68 31.776 379.38 32.382 379.284 33.15H384.774ZM392.859 34.05L397.431 39H394.659L390.987 34.734V39H388.935V25.68H390.987V33.42L394.587 29.082H397.431L392.859 34.05ZM407.7 39.126C406.86 39.126 406.104 38.982 405.432 38.694C404.76 38.394 404.232 37.974 403.848 37.434C403.464 36.894 403.272 36.264 403.272 35.544H405.468C405.516 36.084 405.726 36.528 406.098 36.876C406.482 37.224 407.016 37.398 407.7 37.398C408.408 37.398 408.96 37.23 409.356 36.894C409.752 36.546 409.95 36.102 409.95 35.562C409.95 35.142 409.824 34.8 409.572 34.536C409.332 34.272 409.026 34.068 408.654 33.924C408.294 33.78 407.79 33.624 407.142 33.456C406.326 33.24 405.66 33.024 405.144 32.808C404.64 32.58 404.208 32.232 403.848 31.764C403.488 31.296 403.308 30.672 403.308 29.892C403.308 29.172 403.488 28.542 403.848 28.002C404.208 27.462 404.712 27.048 405.36 26.76C406.008 26.472 406.758 26.328 407.61 26.328C408.822 26.328 409.812 26.634 410.58 27.246C411.36 27.846 411.792 28.674 411.876 29.73H409.608C409.572 29.274 409.356 28.884 408.96 28.56C408.564 28.236 408.042 28.074 407.394 28.074C406.806 28.074 406.326 28.224 405.954 28.524C405.582 28.824 405.396 29.256 405.396 29.82C405.396 30.204 405.51 30.522 405.738 30.774C405.978 31.014 406.278 31.206 406.638 31.35C406.998 31.494 407.49 31.65 408.114 31.818C408.942 32.046 409.614 32.274 410.13 32.502C410.658 32.73 411.102 33.084 411.462 33.564C411.834 34.032 412.02 34.662 412.02 35.454C412.02 36.09 411.846 36.69 411.498 37.254C411.162 37.818 410.664 38.274 410.004 38.622C409.356 38.958 408.588 39.126 407.7 39.126ZM418.743 39.162C417.807 39.162 416.961 38.952 416.205 38.532C415.449 38.1 414.855 37.5 414.423 36.732C413.991 35.952 413.775 35.052 413.775 34.032C413.775 33.024 413.997 32.13 414.441 31.35C414.885 30.57 415.491 29.97 416.259 29.55C417.027 29.13 417.885 28.92 418.833 28.92C419.781 28.92 420.639 29.13 421.407 29.55C422.175 29.97 422.781 30.57 423.225 31.35C423.669 32.13 423.891 33.024 423.891 34.032C423.891 35.04 423.663 35.934 423.207 36.714C422.751 37.494 422.127 38.1 421.335 38.532C420.555 38.952 419.691 39.162 418.743 39.162ZM418.743 37.38C419.271 37.38 419.763 37.254 420.219 37.002C420.687 36.75 421.065 36.372 421.353 35.868C421.641 35.364 421.785 34.752 421.785 34.032C421.785 33.312 421.647 32.706 421.371 32.214C421.095 31.71 420.729 31.332 420.273 31.08C419.817 30.828 419.325 30.702 418.797 30.702C418.269 30.702 417.777 30.828 417.321 31.08C416.877 31.332 416.523 31.71 416.259 32.214C415.995 32.706 415.863 33.312 415.863 34.032C415.863 35.1 416.133 35.928 416.673 36.516C417.225 37.092 417.915 37.38 418.743 37.38ZM437.957 26.49V28.164H432.647V31.854H436.787V33.528H432.647V39H430.595V26.49H437.957ZM439.175 33.996C439.175 33 439.379 32.118 439.787 31.35C440.207 30.582 440.771 29.988 441.479 29.568C442.199 29.136 442.991 28.92 443.855 28.92C444.635 28.92 445.313 29.076 445.889 29.388C446.477 29.688 446.945 30.066 447.293 30.522V29.082H449.363V39H447.293V37.524C446.945 37.992 446.471 38.382 445.871 38.694C445.271 39.006 444.587 39.162 443.819 39.162C442.967 39.162 442.187 38.946 441.479 38.514C440.771 38.07 440.207 37.458 439.787 36.678C439.379 35.886 439.175 34.992 439.175 33.996ZM447.293 34.032C447.293 33.348 447.149 32.754 446.861 32.25C446.585 31.746 446.219 31.362 445.763 31.098C445.307 30.834 444.815 30.702 444.287 30.702C443.759 30.702 443.267 30.834 442.811 31.098C442.355 31.35 441.983 31.728 441.695 32.232C441.419 32.724 441.281 33.312 441.281 33.996C441.281 34.68 441.419 35.28 441.695 35.796C441.983 36.312 442.355 36.708 442.811 36.984C443.279 37.248 443.771 37.38 444.287 37.38C444.815 37.38 445.307 37.248 445.763 36.984C446.219 36.72 446.585 36.336 446.861 35.832C447.149 35.316 447.293 34.716 447.293 34.032ZM454.11 30.522C454.41 30.018 454.806 29.628 455.298 29.352C455.802 29.064 456.396 28.92 457.08 28.92V31.044H456.558C455.754 31.044 455.142 31.248 454.722 31.656C454.314 32.064 454.11 32.772 454.11 33.78V39H452.058V29.082H454.11V30.522Z" fill="#333448" fill-opacity="0.5"/>
<path d="M602.78 26.49V39H600.728V30.432L596.912 39H595.49L591.656 30.432V39H589.604V26.49H591.818L596.21 36.3L600.584 26.49H602.78ZM609.779 39.162C608.843 39.162 607.997 38.952 607.241 38.532C606.485 38.1 605.891 37.5 605.459 36.732C605.027 35.952 604.811 35.052 604.811 34.032C604.811 33.024 605.033 32.13 605.477 31.35C605.921 30.57 606.527 29.97 607.295 29.55C608.063 29.13 608.921 28.92 609.869 28.92C610.817 28.92 611.675 29.13 612.443 29.55C613.211 29.97 613.817 30.57 614.261 31.35C614.705 32.13 614.927 33.024 614.927 34.032C614.927 35.04 614.699 35.934 614.243 36.714C613.787 37.494 613.163 38.1 612.371 38.532C611.591 38.952 610.727 39.162 609.779 39.162ZM609.779 37.38C610.307 37.38 610.799 37.254 611.255 37.002C611.723 36.75 612.101 36.372 612.389 35.868C612.677 35.364 612.821 34.752 612.821 34.032C612.821 33.312 612.683 32.706 612.407 32.214C612.131 31.71 611.765 31.332 611.309 31.08C610.853 30.828 610.361 30.702 609.833 30.702C609.305 30.702 608.813 30.828 608.357 31.08C607.913 31.332 607.559 31.71 607.295 32.214C607.031 32.706 606.899 33.312 606.899 34.032C606.899 35.1 607.169 35.928 607.709 36.516C608.261 37.092 608.951 37.38 609.779 37.38ZM621.959 28.92C622.739 28.92 623.435 29.082 624.047 29.406C624.671 29.73 625.157 30.21 625.505 30.846C625.853 31.482 626.027 32.25 626.027 33.15V39H623.993V33.456C623.993 32.568 623.771 31.89 623.327 31.422C622.883 30.942 622.277 30.702 621.509 30.702C620.741 30.702 620.129 30.942 619.673 31.422C619.229 31.89 619.007 32.568 619.007 33.456V39H616.955V29.082H619.007V30.216C619.343 29.808 619.769 29.49 620.285 29.262C620.813 29.034 621.371 28.92 621.959 28.92ZM631.039 30.756V36.246C631.039 36.618 631.123 36.888 631.291 37.056C631.471 37.212 631.771 37.29 632.191 37.29H633.451V39H631.831C630.907 39 630.199 38.784 629.707 38.352C629.215 37.92 628.969 37.218 628.969 36.246V30.756H627.799V29.082H628.969V26.616H631.039V29.082H633.451V30.756H631.039ZM640.472 28.92C641.228 28.92 641.9 29.082 642.488 29.406C643.088 29.73 643.556 30.21 643.892 30.846C644.24 31.482 644.414 32.25 644.414 33.15V39H642.38V33.456C642.38 32.568 642.158 31.89 641.714 31.422C641.27 30.942 640.664 30.702 639.896 30.702C639.128 30.702 638.516 30.942 638.06 31.422C637.616 31.89 637.394 32.568 637.394 33.456V39H635.342V25.68H637.394V30.234C637.742 29.814 638.18 29.49 638.708 29.262C639.248 29.034 639.836 28.92 640.472 28.92ZM655.829 39.126C654.989 39.126 654.233 38.982 653.561 38.694C652.889 38.394 652.361 37.974 651.977 37.434C651.593 36.894 651.401 36.264 651.401 35.544H653.597C653.645 36.084 653.855 36.528 654.227 36.876C654.611 37.224 655.145 37.398 655.829 37.398C656.537 37.398 657.089 37.23 657.485 36.894C657.881 36.546 658.079 36.102 658.079 35.562C658.079 35.142 657.953 34.8 657.701 34.536C657.461 34.272 657.155 34.068 656.783 33.924C656.423 33.78 655.919 33.624 655.271 33.456C654.455 33.24 653.789 33.024 653.273 32.808C652.769 32.58 652.337 32.232 651.977 31.764C651.617 31.296 651.437 30.672 651.437 29.892C651.437 29.172 651.617 28.542 651.977 28.002C652.337 27.462 652.841 27.048 653.489 26.76C654.137 26.472 654.887 26.328 655.739 26.328C656.951 26.328 657.941 26.634 658.709 27.246C659.489 27.846 659.921 28.674 660.005 29.73H657.737C657.701 29.274 657.485 28.884 657.089 28.56C656.693 28.236 656.171 28.074 655.523 28.074C654.935 28.074 654.455 28.224 654.083 28.524C653.711 28.824 653.525 29.256 653.525 29.82C653.525 30.204 653.639 30.522 653.867 30.774C654.107 31.014 654.407 31.206 654.767 31.35C655.127 31.494 655.619 31.65 656.243 31.818C657.071 32.046 657.743 32.274 658.259 32.502C658.787 32.73 659.231 33.084 659.591 33.564C659.963 34.032 660.149 34.662 660.149 35.454C660.149 36.09 659.975 36.69 659.627 37.254C659.291 37.818 658.793 38.274 658.133 38.622C657.485 38.958 656.717 39.126 655.829 39.126ZM666.873 39.162C665.937 39.162 665.091 38.952 664.335 38.532C663.579 38.1 662.985 37.5 662.553 36.732C662.121 35.952 661.905 35.052 661.905 34.032C661.905 33.024 662.127 32.13 662.571 31.35C663.015 30.57 663.621 29.97 664.389 29.55C665.157 29.13 666.015 28.92 666.963 28.92C667.911 28.92 668.769 29.13 669.537 29.55C670.305 29.97 670.911 30.57 671.355 31.35C671.799 32.13 672.021 33.024 672.021 34.032C672.021 35.04 671.793 35.934 671.337 36.714C670.881 37.494 670.257 38.1 669.465 38.532C668.685 38.952 667.821 39.162 666.873 39.162ZM666.873 37.38C667.401 37.38 667.893 37.254 668.349 37.002C668.817 36.75 669.195 36.372 669.483 35.868C669.771 35.364 669.915 34.752 669.915 34.032C669.915 33.312 669.777 32.706 669.501 32.214C669.225 31.71 668.859 31.332 668.403 31.08C667.947 30.828 667.455 30.702 666.927 30.702C666.399 30.702 665.907 30.828 665.451 31.08C665.007 31.332 664.653 31.71 664.389 32.214C664.125 32.706 663.993 33.312 663.993 34.032C663.993 35.1 664.263 35.928 664.803 36.516C665.355 37.092 666.045 37.38 666.873 37.38ZM686.087 26.49V28.164H680.777V31.854H684.917V33.528H680.777V39H678.725V26.49H686.087ZM687.305 33.996C687.305 33 687.509 32.118 687.917 31.35C688.337 30.582 688.901 29.988 689.609 29.568C690.329 29.136 691.121 28.92 691.985 28.92C692.765 28.92 693.443 29.076 694.019 29.388C694.607 29.688 695.075 30.066 695.423 30.522V29.082H697.493V39H695.423V37.524C695.075 37.992 694.601 38.382 694.001 38.694C693.401 39.006 692.717 39.162 691.949 39.162C691.097 39.162 690.317 38.946 689.609 38.514C688.901 38.07 688.337 37.458 687.917 36.678C687.509 35.886 687.305 34.992 687.305 33.996ZM695.423 34.032C695.423 33.348 695.279 32.754 694.991 32.25C694.715 31.746 694.349 31.362 693.893 31.098C693.437 30.834 692.945 30.702 692.417 30.702C691.889 30.702 691.397 30.834 690.941 31.098C690.485 31.35 690.113 31.728 689.825 32.232C689.549 32.724 689.411 33.312 689.411 33.996C689.411 34.68 689.549 35.28 689.825 35.796C690.113 36.312 690.485 36.708 690.941 36.984C691.409 37.248 691.901 37.38 692.417 37.38C692.945 37.38 693.437 37.248 693.893 36.984C694.349 36.72 694.715 36.336 694.991 35.832C695.279 35.316 695.423 34.716 695.423 34.032ZM702.24 30.522C702.54 30.018 702.936 29.628 703.428 29.352C703.932 29.064 704.526 28.92 705.21 28.92V31.044H704.688C703.884 31.044 703.272 31.248 702.852 31.656C702.444 32.064 702.24 32.772 702.24 33.78V39H700.188V29.082H702.24V30.522Z" fill="#3A643B"/>
<path d="M837.113 32.718C837.113 31.494 837.395 30.396 837.959 29.424C838.535 28.452 839.309 27.696 840.281 27.156C841.265 26.604 842.339 26.328 843.503 26.328C844.835 26.328 846.017 26.658 847.049 27.318C848.093 27.966 848.849 28.89 849.317 30.09H846.851C846.527 29.43 846.077 28.938 845.501 28.614C844.925 28.29 844.259 28.128 843.503 28.128C842.675 28.128 841.937 28.314 841.289 28.686C840.641 29.058 840.131 29.592 839.759 30.288C839.399 30.984 839.219 31.794 839.219 32.718C839.219 33.642 839.399 34.452 839.759 35.148C840.131 35.844 840.641 36.384 841.289 36.768C841.937 37.14 842.675 37.326 843.503 37.326C844.259 37.326 844.925 37.164 845.501 36.84C846.077 36.516 846.527 36.024 846.851 35.364H849.317C848.849 36.564 848.093 37.488 847.049 38.136C846.017 38.784 844.835 39.108 843.503 39.108C842.327 39.108 841.253 38.838 840.281 38.298C839.309 37.746 838.535 36.984 837.959 36.012C837.395 35.04 837.113 33.942 837.113 32.718ZM860.701 29.082V39H858.649V37.83C858.325 38.238 857.899 38.562 857.371 38.802C856.855 39.03 856.303 39.144 855.715 39.144C854.935 39.144 854.233 38.982 853.609 38.658C852.997 38.334 852.511 37.854 852.151 37.218C851.803 36.582 851.629 35.814 851.629 34.914V29.082H853.663V34.608C853.663 35.496 853.885 36.18 854.329 36.66C854.773 37.128 855.379 37.362 856.147 37.362C856.915 37.362 857.521 37.128 857.965 36.66C858.421 36.18 858.649 35.496 858.649 34.608V29.082H860.701ZM867.009 39.162C866.229 39.162 865.527 39.024 864.903 38.748C864.291 38.46 863.805 38.076 863.445 37.596C863.085 37.104 862.893 36.558 862.869 35.958H864.993C865.029 36.378 865.227 36.732 865.587 37.02C865.959 37.296 866.421 37.434 866.973 37.434C867.549 37.434 867.993 37.326 868.305 37.11C868.629 36.882 868.791 36.594 868.791 36.246C868.791 35.874 868.611 35.598 868.251 35.418C867.903 35.238 867.345 35.04 866.577 34.824C865.833 34.62 865.227 34.422 864.759 34.23C864.291 34.038 863.883 33.744 863.535 33.348C863.199 32.952 863.031 32.43 863.031 31.782C863.031 31.254 863.187 30.774 863.499 30.342C863.811 29.898 864.255 29.55 864.831 29.298C865.419 29.046 866.091 28.92 866.847 28.92C867.975 28.92 868.881 29.208 869.565 29.784C870.261 30.348 870.633 31.122 870.681 32.106H868.629C868.593 31.662 868.413 31.308 868.089 31.044C867.765 30.78 867.327 30.648 866.775 30.648C866.235 30.648 865.821 30.75 865.533 30.954C865.245 31.158 865.101 31.428 865.101 31.764C865.101 32.028 865.197 32.25 865.389 32.43C865.581 32.61 865.815 32.754 866.091 32.862C866.367 32.958 866.775 33.084 867.315 33.24C868.035 33.432 868.623 33.63 869.079 33.834C869.547 34.026 869.949 34.314 870.285 34.698C870.621 35.082 870.795 35.592 870.807 36.228C870.807 36.792 870.651 37.296 870.339 37.74C870.027 38.184 869.583 38.532 869.007 38.784C868.443 39.036 867.777 39.162 867.009 39.162ZM875.418 30.756V36.246C875.418 36.618 875.502 36.888 875.67 37.056C875.85 37.212 876.15 37.29 876.57 37.29H877.83V39H876.21C875.286 39 874.578 38.784 874.086 38.352C873.594 37.92 873.348 37.218 873.348 36.246V30.756H872.178V29.082H873.348V26.616H875.418V29.082H877.83V30.756H875.418ZM884.023 39.162C883.087 39.162 882.241 38.952 881.485 38.532C880.729 38.1 880.135 37.5 879.703 36.732C879.271 35.952 879.055 35.052 879.055 34.032C879.055 33.024 879.277 32.13 879.721 31.35C880.165 30.57 880.771 29.97 881.539 29.55C882.307 29.13 883.165 28.92 884.113 28.92C885.061 28.92 885.919 29.13 886.687 29.55C887.455 29.97 888.061 30.57 888.505 31.35C888.949 32.13 889.171 33.024 889.171 34.032C889.171 35.04 888.943 35.934 888.487 36.714C888.031 37.494 887.407 38.1 886.615 38.532C885.835 38.952 884.971 39.162 884.023 39.162ZM884.023 37.38C884.551 37.38 885.043 37.254 885.499 37.002C885.967 36.75 886.345 36.372 886.633 35.868C886.921 35.364 887.065 34.752 887.065 34.032C887.065 33.312 886.927 32.706 886.651 32.214C886.375 31.71 886.009 31.332 885.553 31.08C885.097 30.828 884.605 30.702 884.077 30.702C883.549 30.702 883.057 30.828 882.601 31.08C882.157 31.332 881.803 31.71 881.539 32.214C881.275 32.706 881.143 33.312 881.143 34.032C881.143 35.1 881.413 35.928 881.953 36.516C882.505 37.092 883.195 37.38 884.023 37.38ZM903.206 28.92C903.986 28.92 904.682 29.082 905.294 29.406C905.918 29.73 906.404 30.21 906.752 30.846C907.112 31.482 907.292 32.25 907.292 33.15V39H905.258V33.456C905.258 32.568 905.036 31.89 904.592 31.422C904.148 30.942 903.542 30.702 902.774 30.702C902.006 30.702 901.394 30.942 900.938 31.422C900.494 31.89 900.272 32.568 900.272 33.456V39H898.238V33.456C898.238 32.568 898.016 31.89 897.572 31.422C897.128 30.942 896.522 30.702 895.754 30.702C894.986 30.702 894.374 30.942 893.918 31.422C893.474 31.89 893.252 32.568 893.252 33.456V39H891.2V29.082H893.252V30.216C893.588 29.808 894.014 29.49 894.53 29.262C895.046 29.034 895.598 28.92 896.186 28.92C896.978 28.92 897.686 29.088 898.31 29.424C898.934 29.76 899.414 30.246 899.75 30.882C900.05 30.282 900.518 29.808 901.154 29.46C901.79 29.1 902.474 28.92 903.206 28.92Z" fill="#333448" fill-opacity="0.5"/>
<path d="M588 50.25H706" stroke="#3A643B" stroke-width="1.5" stroke-linecap="round"/>
</svg>
